<mxfile host="65bd71144e">
    <diagram id="w7LqoXCT8CnwwwJLQl_I" name="Page-1">
        <mxGraphModel dx="2611" dy="1085" grid="1" gridSize="10" guides="1" tooltips="1" connect="1" arrows="1" fold="1" page="1" pageScale="1" pageWidth="827" pageHeight="1169" math="0" shadow="0">
            <root>
                <mxCell id="0"/>
                <mxCell id="1" parent="0"/>
                <mxCell id="2" value="&lt;h1&gt;PT-applikation&lt;/h1&gt;&lt;p&gt;En konsolapplikation som fungerar som en personlig träningsdagbok.&lt;/p&gt;" style="text;html=1;strokeColor=none;fillColor=none;spacing=5;spacingTop=-20;whiteSpace=wrap;overflow=hidden;rounded=0;" vertex="1" parent="1">
                    <mxGeometry x="40" y="40" width="190" height="120" as="geometry"/>
                </mxCell>
                <mxCell id="8" style="edgeStyle=none;html=1;entryX=0.5;entryY=0;entryDx=0;entryDy=0;exitX=0;exitY=0.5;exitDx=0;exitDy=0;" edge="1" parent="1" source="5" target="6">
                    <mxGeometry relative="1" as="geometry">
                        <Array as="points">
                            <mxPoint x="225" y="80"/>
                        </Array>
                    </mxGeometry>
                </mxCell>
                <mxCell id="9" style="edgeStyle=none;html=1;exitX=1;exitY=0.5;exitDx=0;exitDy=0;entryX=0.5;entryY=0;entryDx=0;entryDy=0;" edge="1" parent="1" source="5" target="7">
                    <mxGeometry relative="1" as="geometry">
                        <Array as="points">
                            <mxPoint x="1060" y="90"/>
                        </Array>
                    </mxGeometry>
                </mxCell>
                <mxCell id="5" value="Huvudmeny" style="ellipse;whiteSpace=wrap;html=1;" vertex="1" parent="1">
                    <mxGeometry x="390" y="20" width="120" height="80" as="geometry"/>
                </mxCell>
                <mxCell id="11" style="edgeStyle=none;html=1;exitX=0.5;exitY=1;exitDx=0;exitDy=0;entryX=0.5;entryY=0;entryDx=0;entryDy=0;" edge="1" parent="1" source="6" target="10">
                    <mxGeometry relative="1" as="geometry"/>
                </mxCell>
                <mxCell id="6" value="1. Logga in" style="rounded=0;whiteSpace=wrap;html=1;align=left;spacing=8;" vertex="1" parent="1">
                    <mxGeometry x="165" y="160" width="120" height="60" as="geometry"/>
                </mxCell>
                <mxCell id="7" value="2. Skapa ny användare" style="rounded=0;whiteSpace=wrap;html=1;align=left;spacing=8;" vertex="1" parent="1">
                    <mxGeometry x="1000" y="160" width="120" height="60" as="geometry"/>
                </mxCell>
                <mxCell id="13" value="" style="edgeStyle=none;html=1;" edge="1" parent="1" source="10" target="12">
                    <mxGeometry relative="1" as="geometry"/>
                </mxCell>
                <mxCell id="10" value="Output:&lt;br&gt;Ange användarnamn:" style="rounded=0;whiteSpace=wrap;html=1;fontFamily=Helvetica;fontSize=12;fontColor=default;align=left;strokeColor=default;fillColor=default;spacing=8;" vertex="1" parent="1">
                    <mxGeometry x="140" y="240" width="170" height="60" as="geometry"/>
                </mxCell>
                <mxCell id="15" value="" style="edgeStyle=none;html=1;" edge="1" parent="1" source="12" target="14">
                    <mxGeometry relative="1" as="geometry"/>
                </mxCell>
                <mxCell id="12" value="Input:&lt;br&gt;användarnamn" style="rounded=0;whiteSpace=wrap;html=1;fontFamily=Helvetica;fontSize=12;fontColor=default;align=left;strokeColor=default;fillColor=default;spacing=8;" vertex="1" parent="1">
                    <mxGeometry x="140" y="320" width="170" height="60" as="geometry"/>
                </mxCell>
                <mxCell id="19" value="NEJ" style="edgeStyle=none;html=1;exitX=1;exitY=0.5;exitDx=0;exitDy=0;entryX=0;entryY=0.5;entryDx=0;entryDy=0;" edge="1" parent="1" source="14" target="16">
                    <mxGeometry relative="1" as="geometry"/>
                </mxCell>
                <mxCell id="20" value="JA" style="edgeStyle=none;html=1;exitX=0.5;exitY=1;exitDx=0;exitDy=0;entryX=0.5;entryY=0;entryDx=0;entryDy=0;" edge="1" parent="1" source="14" target="17">
                    <mxGeometry relative="1" as="geometry"/>
                </mxCell>
                <mxCell id="14" value="Finns användarnamnet i db?" style="rhombus;whiteSpace=wrap;html=1;" vertex="1" parent="1">
                    <mxGeometry x="165" y="410" width="120" height="160" as="geometry"/>
                </mxCell>
                <mxCell id="18" style="edgeStyle=none;html=1;entryX=0.5;entryY=1;entryDx=0;entryDy=0;" edge="1" parent="1" source="16" target="5">
                    <mxGeometry relative="1" as="geometry"/>
                </mxCell>
                <mxCell id="22" value="" style="edgeStyle=none;html=1;" edge="1" parent="1" source="17" target="21">
                    <mxGeometry relative="1" as="geometry"/>
                </mxCell>
                <mxCell id="17" value="Output:&lt;br&gt;Lösenord" style="rounded=0;whiteSpace=wrap;html=1;align=left;spacing=8;" vertex="1" parent="1">
                    <mxGeometry x="165" y="600" width="120" height="60" as="geometry"/>
                </mxCell>
                <mxCell id="29" style="edgeStyle=none;html=1;exitX=0.5;exitY=1;exitDx=0;exitDy=0;entryX=0.5;entryY=0;entryDx=0;entryDy=0;" edge="1" parent="1" source="21" target="25">
                    <mxGeometry relative="1" as="geometry"/>
                </mxCell>
                <mxCell id="21" value="Input:&lt;br&gt;Lösenord" style="rounded=0;whiteSpace=wrap;html=1;align=left;spacing=8;" vertex="1" parent="1">
                    <mxGeometry x="165" y="680" width="120" height="50" as="geometry"/>
                </mxCell>
                <mxCell id="31" style="edgeStyle=none;html=1;exitX=0.5;exitY=1;exitDx=0;exitDy=0;" edge="1" parent="1" source="25" target="30">
                    <mxGeometry relative="1" as="geometry"/>
                </mxCell>
                <mxCell id="25" value="db-anrop:&lt;br&gt;SELECT password FROM user WHERE username = användarnamn" style="whiteSpace=wrap;html=1;rounded=0;align=left;spacing=8;" vertex="1" parent="1">
                    <mxGeometry x="137.5" y="770" width="175" height="70" as="geometry"/>
                </mxCell>
                <mxCell id="33" value="" style="edgeStyle=none;html=1;" edge="1" parent="1" source="30" target="32">
                    <mxGeometry relative="1" as="geometry"/>
                </mxCell>
                <mxCell id="34" value="NEJ" style="edgeLabel;html=1;align=center;verticalAlign=middle;resizable=0;points=[];" vertex="1" connectable="0" parent="33">
                    <mxGeometry x="-0.0667" relative="1" as="geometry">
                        <mxPoint as="offset"/>
                    </mxGeometry>
                </mxCell>
                <mxCell id="35" style="edgeStyle=none;html=1;entryX=1;entryY=1;entryDx=0;entryDy=0;exitX=1;exitY=0.582;exitDx=0;exitDy=0;exitPerimeter=0;" edge="1" parent="1" source="32" target="5">
                    <mxGeometry relative="1" as="geometry">
                        <Array as="points">
                            <mxPoint x="640" y="932"/>
                            <mxPoint x="640" y="200"/>
                        </Array>
                    </mxGeometry>
                </mxCell>
                <mxCell id="37" value="" style="edgeStyle=none;html=1;" edge="1" parent="1" source="30" target="36">
                    <mxGeometry relative="1" as="geometry"/>
                </mxCell>
                <mxCell id="38" value="JA" style="edgeLabel;html=1;align=center;verticalAlign=middle;resizable=0;points=[];" vertex="1" connectable="0" parent="37">
                    <mxGeometry x="-0.2762" y="-1" relative="1" as="geometry">
                        <mxPoint as="offset"/>
                    </mxGeometry>
                </mxCell>
                <mxCell id="30" value="Verifiera lösenord.&lt;br&gt;Är lösenordet samma som i databasen?&lt;br&gt;(Hashat och saltat)" style="rhombus;whiteSpace=wrap;html=1;rounded=0;" vertex="1" parent="1">
                    <mxGeometry x="100" y="860" width="250" height="130" as="geometry"/>
                </mxCell>
                <mxCell id="32" value="Output:&lt;br&gt;Felaktigt lösenord&lt;br&gt;&lt;br&gt;Tryck på valfri tangent för att fortsätta." style="whiteSpace=wrap;html=1;rounded=0;align=left;spacing=8;" vertex="1" parent="1">
                    <mxGeometry x="420" y="882.5" width="170" height="85" as="geometry"/>
                </mxCell>
                <mxCell id="16" value="Output:&lt;br&gt;En användare med användarnamnet {användarnamn} finns inte i db.&lt;br&gt;&lt;br&gt;Tryck på valfri tangent för att fortsätta." style="rounded=0;whiteSpace=wrap;html=1;fontFamily=Helvetica;fontSize=12;fontColor=default;align=left;strokeColor=default;fillColor=default;spacing=8;" vertex="1" parent="1">
                    <mxGeometry x="330" y="440" width="230" height="100" as="geometry"/>
                </mxCell>
                <mxCell id="41" style="edgeStyle=none;html=1;exitX=0.5;exitY=1;exitDx=0;exitDy=0;entryX=0.5;entryY=0;entryDx=0;entryDy=0;" edge="1" parent="1" source="36" target="39">
                    <mxGeometry relative="1" as="geometry"/>
                </mxCell>
                <mxCell id="36" value="Användare inloggad." style="ellipse;whiteSpace=wrap;html=1;rounded=0;" vertex="1" parent="1">
                    <mxGeometry x="185" y="1095" width="80" height="80" as="geometry"/>
                </mxCell>
                <mxCell id="43" value="" style="edgeStyle=none;html=1;exitX=0.5;exitY=1;exitDx=0;exitDy=0;entryX=0.5;entryY=0;entryDx=0;entryDy=0;" edge="1" parent="1" source="39" target="42">
                    <mxGeometry relative="1" as="geometry">
                        <Array as="points">
                            <mxPoint x="225" y="1560"/>
                            <mxPoint x="-20" y="1560"/>
                        </Array>
                    </mxGeometry>
                </mxCell>
                <mxCell id="47" value="" style="edgeStyle=none;html=1;exitX=0.5;exitY=1;exitDx=0;exitDy=0;" edge="1" parent="1" source="39" target="44">
                    <mxGeometry relative="1" as="geometry"/>
                </mxCell>
                <mxCell id="50" value="" style="edgeStyle=none;html=1;exitX=0.5;exitY=1;exitDx=0;exitDy=0;entryX=0.5;entryY=0;entryDx=0;entryDy=0;" edge="1" parent="1" source="39" target="49">
                    <mxGeometry relative="1" as="geometry">
                        <Array as="points">
                            <mxPoint x="225" y="1560"/>
                            <mxPoint x="460" y="1560"/>
                        </Array>
                    </mxGeometry>
                </mxCell>
                <mxCell id="39" value="Output:&lt;br&gt;Inloggad som: Användarnamn&lt;br&gt;&lt;div style=&quot;&quot;&gt;Antal tränade pass:&amp;nbsp;&lt;/div&gt;&lt;div style=&quot;&quot;&gt;Total träningstid:&lt;/div&gt;&lt;div style=&quot;&quot;&gt;---------------------------------------&lt;/div&gt;&lt;div style=&quot;&quot;&gt;1. Registrera pass&lt;/div&gt;&lt;div style=&quot;&quot;&gt;2. Uppdatera pass&lt;/div&gt;&lt;div style=&quot;&quot;&gt;3. Radera pass&lt;/div&gt;&lt;div style=&quot;&quot;&gt;&lt;br&gt;&lt;/div&gt;&lt;div style=&quot;&quot;&gt;X. Logga ut&lt;/div&gt;&lt;div style=&quot;&quot;&gt;---------------------------------------&lt;br&gt;&lt;/div&gt;&lt;div style=&quot;&quot;&gt;Mina pass&lt;/div&gt;&lt;div style=&quot;&quot;&gt;[1] datum, längd, intensitet&lt;/div&gt;&lt;div style=&quot;&quot;&gt;&lt;span style=&quot;&quot;&gt;&#9;&lt;/span&gt;&lt;span style=&quot;&quot;&gt;&#9;&lt;/span&gt;&lt;span style=&quot;white-space: pre;&quot;&gt;&#9;&lt;/span&gt;- övning, vikt x reps&lt;/div&gt;&lt;span style=&quot;&quot;&gt;&#9;&lt;/span&gt;&lt;span style=&quot;white-space: pre;&quot;&gt;&#9;&lt;/span&gt;- övning, vikt x reps&lt;div style=&quot;&quot;&gt;[2]&amp;nbsp;&lt;span style=&quot;background-color: initial;&quot;&gt;datum, längd, intensitet&lt;/span&gt;&lt;/div&gt;&lt;div style=&quot;border-color: var(--border-color);&quot;&gt;&lt;span style=&quot;border-color: var(--border-color);&quot;&gt;&lt;/span&gt;&lt;span style=&quot;border-color: var(--border-color);&quot;&gt;&#9;&lt;/span&gt;&lt;span style=&quot;white-space: pre;&quot;&gt;&#9;&lt;/span&gt;- övning, vikt x reps&lt;/div&gt;&lt;span style=&quot;border-color: var(--border-color);&quot;&gt;&#9;&lt;/span&gt;&lt;span style=&quot;white-space: pre;&quot;&gt;&#9;&lt;/span&gt;- övning, vikt x reps&lt;div style=&quot;&quot;&gt;&amp;nbsp;&lt;/div&gt;" style="whiteSpace=wrap;html=1;rounded=0;align=left;spacing=8;" vertex="1" parent="1">
                    <mxGeometry x="105" y="1240" width="240" height="300" as="geometry"/>
                </mxCell>
                <mxCell id="42" value="1. Registrera pass" style="whiteSpace=wrap;html=1;align=left;rounded=0;spacing=8;" vertex="1" parent="1">
                    <mxGeometry x="-80" y="1600" width="120" height="60" as="geometry"/>
                </mxCell>
                <mxCell id="44" value="2. Uppdatera pass" style="whiteSpace=wrap;html=1;align=left;rounded=0;spacing=8;" vertex="1" parent="1">
                    <mxGeometry x="165" y="1600" width="120" height="60" as="geometry"/>
                </mxCell>
                <mxCell id="49" value="3. Radera pass" style="whiteSpace=wrap;html=1;align=left;rounded=0;spacing=8;" vertex="1" parent="1">
                    <mxGeometry x="400" y="1600" width="120" height="60" as="geometry"/>
                </mxCell>
            </root>
        </mxGraphModel>
    </diagram>
</mxfile>